<svg xmlns="http://www.w3.org/2000/svg" width="179" height="61">
  <g fill="none" fill-rule="evenodd">
    <g fill="#646464">
      <path d="M37.9 29.5c0-3.8 3.3-5.7 3.4-5.8a7.6 7.6 0 00-5.8-3c-2.5-.2-4.9 1.4-6.1 1.4-1.3 0-3.3-1.4-5.3-1.3a7.9 7.9 0 00-6.6 3.8c-2.8 4.6-.7 11.5 2 15.3 1.4 1.8 3 3.9 5 3.8 2 0 2.8-1.2 5.3-1.2 2.4 0 3.1 1.2 5.3 1.1 2.1 0 3.5-1.8 4.8-3.7 1.6-2 2.2-4.2 2.3-4.3-.1 0-4.3-1.5-4.3-6.1"/>
      <path d="M33.6 18.6c1-1.3 1.7-3.1 1.5-4.9-1.5 0-3.3 1-4.4 2.3-.9 1.1-1.7 3-1.5 4.7 1.6.1 3.3-.9 4.4-2.1"/>
    </g>
    <path d="M55 15.8H58c.5 0 1 0 1.4.2.4.2.7.4 1 .8l.5 1a4.9 4.9 0 010 2.7c-.2.4-.3.8-.6 1.1-.2.3-.5.6-1 .8l-1.3.2h-2.8v-6.8zm1.3 5.8h1.1l1.2-.1a1.7 1.7 0 001-1.3 4.8 4.8 0 000-2c0-.3-.1-.5-.3-.8l-.7-.5a3 3 0 00-1.2-.2h-1.1v5zm7.8 1.2l-1-.2a2.3 2.3 0 01-1.3-1.4l-.2-1c0-.4 0-.8.2-1.1 0-.3.3-.6.5-.8.2-.3.5-.5.8-.6l1-.2c.4 0 .8 0 1 .2a2.3 2.3 0 011.4 1.4l.1 1-.1 1-.5 1-.8.5-1 .2zm0-.9a1.3 1.3 0 001.1-.6l.3-.5a2.5 2.5 0 000-1.3l-.3-.6-.4-.4-.7-.1a1.3 1.3 0 00-1 .5l-.3.6a2.5 2.5 0 000 1.3l.2.5.5.4.6.2zm3-4.2h1.2l1 3.7.9-3.7h1.1l.9 3.7 1-3.7h1.1l-1.5 5h-1.1l-1-3.8-.9 3.7h-1.2l-1.5-5zm8 0h1v.7c.2-.3.4-.5.7-.6.2-.2.5-.3.8-.3.6 0 1 .2 1.3.4.4.3.5.7.5 1.3v3.4h-1v-3.1l-.3-.9-.8-.2h-.5a1 1 0 00-.3.4l-.3.4v3.5H75v-5zm5.5-2h1v7h-1v-7zm4.6 7l-1.1-.1a2.3 2.3 0 01-1.3-1.4l-.1-1 .1-1.1.5-.8c.2-.3.5-.5.8-.6l1-.2c.5 0 .8 0 1.1.2a2.3 2.3 0 011.3 1.4l.2 1c0 .4 0 .8-.2 1l-.5 1-.8.5-1 .2zm0-.8a1.3 1.3 0 001-.6c.2-.1.2-.3.3-.5a2.5 2.5 0 000-1.3l-.3-.6-.4-.4-.6-.1a1.3 1.3 0 00-1.1.5l-.3.6a2.5 2.5 0 000 1.3c0 .2.2.4.3.5l.4.4.7.2zm7.6-.4v.3l.2.1H93.3v.7a2.5 2.5 0 01-.7.2 1 1 0 01-.6-.2l-.2-.4a2 2 0 01-.9.4l-.9.2-.6-.1-.6-.3a1.3 1.3 0 01-.5-1c0-.4 0-.6.2-.8l.4-.5.7-.2.6-.1.6-.1.5-.1.3-.2.1-.3v-.4l-.3-.2a1 1 0 00-.4 0l-.3-.1c-.3 0-.6 0-.8.2-.2.1-.3.3-.3.6h-1l.1-.8c.2-.2.3-.4.6-.5.2-.2.4-.3.7-.3a4.2 4.2 0 011.5 0l.6.2.5.5.2.7v2.5zm-1.1-1.4l-.7.2a8.2 8.2 0 00-1 .2 1 1 0 00-.3.2l-.2.2v.7l.3.2h.3l.3.1h.4l.4-.2c.2 0 .3-.2.3-.3l.2-.4V20zm7 2.5h-1.1V22l-.7.6-.9.2-1-.2a2 2 0 01-.7-.6c-.2-.2-.4-.5-.5-.9a3.7 3.7 0 010-2.2l.6-.8.7-.4a2.2 2.2 0 011.2-.1 2 2 0 01.9.3l.3.4v-2.5h1.1v6.8zm-3.9-2.4v.6l.3.6.5.4.6.1a1.2 1.2 0 001-.6c.2-.1.2-.3.3-.5V20c0-.5 0-1-.3-1.3-.2-.3-.6-.4-1-.4a1.2 1.2 0 00-1 .6c-.2.1-.3.3-.3.5l-.1.7zm10 2.6l-1-.2a2.3 2.3 0 01-1.4-1.4l-.1-1 .1-1.1.5-.8c.2-.3.5-.5.8-.6l1-.2c.5 0 .8 0 1.1.2a2.3 2.3 0 011.3 1.4l.2 1c0 .4 0 .8-.2 1 0 .4-.2.7-.5 1l-.8.5-1 .2zm0-.9a1.3 1.3 0 001-.6c.2-.1.3-.3.3-.5a2.5 2.5 0 000-1.3l-.2-.6-.5-.4-.6-.1a1.3 1.3 0 00-1.1.5l-.3.6a2.5 2.5 0 000 1.3l.3.5.4.4.7.2zm3.4-4.2h1v.7l.7-.6c.3-.2.6-.3 1-.3.5 0 .9.2 1.2.4.3.3.5.7.5 1.3v3.4h-1.1v-3.1c0-.4-.1-.7-.3-.9l-.7-.2h-.5a1 1 0 00-.4.4l-.2.4v3.5h-1.2v-5zm7.7 0h.8v-1.5h1.1v1.5h1v.8h-1v2.9l.1.2.2.2h.3a5.5 5.5 0 00.4 0v.8a62 62 0 00-1.4 0 1 1 0 01-.4-.2.8.8 0 01-.2-.4v-3.6h-.9v-.7zm3.7-2h1.1v2.6l.6-.6 1-.2c.5 0 .9.2 1.2.4.3.3.5.7.5 1.3v3.4h-1.1v-3.1c0-.4-.1-.7-.3-.9l-.7-.2h-.5a1 1 0 00-.4.4l-.2.4v3.5h-1.2v-7zm9 4c0-.2 0-.3-.2-.5l-.2-.4-.4-.3-.5-.1h-.5l-.4.4a1.4 1.4 0 00-.4.9h2.6zm-2.6.7v.6l.3.5.4.3.6.1c.4 0 .6 0 .8-.2.2-.1.4-.4.4-.6h1a2 2 0 01-1.4 1.6h-.8l-1-.1a2.1 2.1 0 01-1.2-1.4 3.4 3.4 0 010-2c0-.4.2-.7.4-.9a2.3 2.3 0 012.9-.5c.3.1.5.3.7.6l.5 1v1H126zM60 28h2.7l5.8 15h-2.8l-1.4-4h-6l-1.4 4h-2.7l5.7-15zm-1 9h4.6l-2.3-6.5L59 37zm10.4-4.9h2.3v1.5c.4-.7.8-1.1 1.4-1.4.6-.3 1.3-.4 2-.4.8 0 1.6.2 2.2.5.7.3 1.2.7 1.6 1.2.4.5.7 1.1 1 1.8a7.8 7.8 0 01-.9 6.2c-.4.6-.8 1-1.4 1.3-.6.3-1.3.5-2.1.5a6 6 0 01-2-.4 4 4 0 01-1-.6 3 3 0 01-.7-.7V47h-2.4V32.1zm8.4 5.4c0-.4 0-1-.2-1.4-.1-.4-.3-.9-.6-1.2a3 3 0 00-1-.9c-.3-.2-.7-.3-1.2-.3-1 0-1.8.4-2.3 1a5.6 5.6 0 00-.6 4.3c.1.5.3 1 .6 1.3l1 .8c.3.2.8.3 1.3.3a2.7 2.7 0 002.3-1.2l.5-1.3.2-1.4zm4.2-5.4h2.3v1.5c.3-.7.8-1.1 1.4-1.4.6-.3 1.3-.4 2-.4.8 0 1.6.2 2.2.5.6.3 1.2.7 1.6 1.2.4.5.7 1.1 1 1.8a7.8 7.8 0 01-.9 6.2c-.4.6-.9 1-1.5 1.3-.5.3-1.2.5-2 .5a6 6 0 01-2.1-.4 4 4 0 01-.9-.6 3 3 0 01-.7-.7V47H82V32.1zm8.4 5.4l-.2-1.4-.6-1.2a3 3 0 00-1-.9c-.3-.2-.8-.3-1.3-.3-1 0-1.7.4-2.2 1-.6.8-.8 1.7-.8 2.8 0 .6 0 1.1.2 1.6l.6 1.2 1 .8c.3.2.8.3 1.2.3a2.7 2.7 0 002.4-1.2l.5-1.3.2-1.4zm11.7.5c0 .5.1 1 .3 1.4.2.4.5.8.8 1 .4.3.8.5 1.3.6a5.8 5.8 0 003 0 3 3 0 00.9-.5c.3-.2.4-.5.5-.8.2-.2.2-.5.2-.8 0-.6-.1-1-.4-1.3l-.8-.5-1.9-.6a130.6 130.6 0 01-4.2-1.3c-.4-.3-.8-.6-1-1-.3-.3-.5-.6-.6-1a4.3 4.3 0 01.3-3.2 5.5 5.5 0 013-2.2 7.7 7.7 0 014.3.1c.7.2 1.3.5 1.8 1 .5.3 1 .8 1.3 1.4.3.6.4 1.3.4 2.1h-2.6c0-1-.4-1.7-1-2a4 4 0 00-2.2-.7 5 5 0 00-1 .1 3 3 0 00-.9.4 2 2 0 00-.6.6c-.2.2-.3.5-.3.9 0 .5.2 1 .5 1.3.3.3.8.5 1.3.6a62.9 62.9 0 015.6 1.8 4 4 0 011.5 2l.1 1.2c0 .9-.1 1.6-.5 2.2-.3.6-.8 1-1.3 1.4-.6.4-1.2.7-2 .9a9.2 9.2 0 01-4.5 0c-.8-.3-1.5-.6-2-1-.6-.5-1-1-1.4-1.7-.3-.7-.5-1.5-.5-2.4h2.6zm10.2-5.9h1.8v-3.3h2.4v3.3h2.2v1.8h-2.2V40.3l.2.5.4.3h.6a12.1 12.1 0 001 0V43a135.5 135.5 0 00-1.6 0l-1.5-.1a2 2 0 01-.9-.5l-.4-.9-.2-1.2V34h-1.8V32zm12.8 11.2a6 6 0 01-2.3-.5 5 5 0 01-2.8-3 7 7 0 01-.3-2.3c0-.8 0-1.6.3-2.3a5 5 0 012.8-3 6 6 0 012.3-.4 6 6 0 012.4.4 5 5 0 012.8 3c.2.7.3 1.5.3 2.3a7 7 0 01-.3 2.3 5 5 0 01-2.8 3 6 6 0 01-2.4.5zm0-2a2.8 2.8 0 002.4-1.1c.3-.4.4-.8.6-1.3a5.5 5.5 0 000-2.8l-.6-1.2a2.8 2.8 0 00-2.4-1.2 2.8 2.8 0 00-2.3 1.2l-.6 1.2a5.5 5.5 0 000 2.8c.1.5.3.9.6 1.3.2.3.6.6 1 .8.3.3.8.4 1.3.4zm7.3-9.2h2.2v2.1l.5-.9a4 4 0 011.7-1.3l1-.2a5.2 5.2 0 011 0v2.4a11.4 11.4 0 00-1.1-.1c-.4 0-.8 0-1.1.2l-1 .7c-.2.4-.5.7-.6 1.2a5 5 0 00-.2 1.6V43h-2.4V32zm14.2 4.5c0-.4-.1-.8-.3-1.1A2.7 2.7 0 00145 34c-.3-.2-.7-.3-1-.3-.5 0-.9 0-1.2.2l-.9.6a3 3 0 00-.8 2h5.6zm-5.6 1.6c0 .4 0 .8.2 1.2 0 .4.3.7.5 1 .2.3.5.5.9.7.4.2.8.3 1.3.3.7 0 1.3-.2 1.7-.5.4-.3.7-.7 1-1.3h2.2a4.5 4.5 0 01-3.2 3.4 5.8 5.8 0 01-4-.2 4.7 4.7 0 01-2.7-3 7.3 7.3 0 010-4.4c.3-.7.6-1.4 1.1-1.9a5 5 0 016.1-1.2 5 5 0 011.7 1.5c.5.6.8 1.2 1 2 .2.8.3 1.5.2 2.4h-8z" fill="#646464" fill-rule="nonzero"/>
  </g>
</svg>
