<svg xmlns="http://www.w3.org/2000/svg" width="179" height="60">
  <g fill="none" fill-rule="evenodd">
    <path d="M55.3 23h-.8l-.1-.7-1 .7c-.3.2-.7.3-1.1.3-.5 0-1-.1-1.4-.3a3 3 0 01-1-.8l-.7-1.1a4.2 4.2 0 01.7-4 3 3 0 012.4-1l1 .1 1 .4a2.5 2.5 0 011 1.8H54a1.5 1.5 0 00-1.2-1.3 2.2 2.2 0 00-1.6.2l-.6.6-.4.8a3.9 3.9 0 000 2l.4.8a1.9 1.9 0 001.6.8l.8-.1.6-.4.4-.6.1-.8h-1.8v-1h3v3.7zm4.6-2.8l-.1-.5c0-.2-.2-.3-.3-.5l-.4-.2-.5-.2-.5.1-.4.3a1.4 1.4 0 00-.4 1H60zm-2.6.7l.1.5c0 .2.1.4.3.5 0 .2.2.3.4.3l.6.2.7-.2.5-.7h1a2 2 0 01-1.5 1.6l-.7.1c-.4 0-.8 0-1-.2a2.1 2.1 0 01-1.3-1.3 3.4 3.4 0 010-2.1l.5-.8a2.3 2.3 0 012.8-.6l.8.7c.2.2.3.6.4 1v1h-3.6zm4-2.8h.8v-1.5h1.1v1.5h1v.8h-1v3l.1.2.2.1h.3a5.5 5.5 0 00.4 0v.9a62 62 0 00-1.4 0 1 1 0 01-.4-.3.8.8 0 01-.2-.4V19h-.9v-.8zm6.4-1.9h1.1v1h-1v-1zm0 2h1.1V23h-1v-5zm1.8 0h.8v-1.6h1.1v1.5h1v.8h-1v3l.1.2.2.1h.3a5.5 5.5 0 00.4 0v.9a62 62 0 00-1.4 0 1 1 0 01-.4-.3.8.8 0 01-.2-.4V19h-.9v-.8zm8.7 5c-.4 0-.8 0-1-.2a2.3 2.3 0 01-1.4-1.3l-.1-1.1.1-1 .5-.9.8-.5c.3-.2.7-.2 1-.2.5 0 .8 0 1.1.2a2.3 2.3 0 011.3 1.4l.2 1c0 .4 0 .7-.2 1 0 .4-.2.7-.5.9-.2.2-.4.4-.8.5-.3.2-.6.2-1 .2zm0-.8a1.3 1.3 0 001-.6l.3-.6a2.5 2.5 0 000-1.2l-.2-.6-.5-.4-.6-.2a1.3 1.3 0 00-1 .6l-.3.6a2.5 2.5 0 000 1.2c0 .2 0 .4.2.6l.4.4.7.2zm3.4-4.3h1v.7l.7-.6 1-.2c.5 0 .9.1 1.2.4.3.3.5.7.5 1.3V23h-1.1V20c0-.4-.1-.7-.3-.9-.1-.2-.4-.3-.7-.3l-.5.1a1 1 0 00-.4.3l-.2.4v3.5h-1.2v-5zM63.3 43.4h-1.7l-.4-1.7c-.7.8-1.4 1.3-2 1.6a7 7 0 01-5.4-.2c-1-.3-1.8-.9-2.4-1.6-.6-.7-1-1.6-1.4-2.5a9.3 9.3 0 011.4-8.6 6.8 6.8 0 015.3-2.3c.8 0 1.6 0 2.3.3.7.2 1.4.5 2 1a5.4 5.4 0 012.1 3.8h-2.5a3.3 3.3 0 00-2.5-2.8 4.9 4.9 0 00-3.5.3 4 4 0 00-1.4 1.3c-.4.5-.6 1.1-.8 1.8a8.5 8.5 0 000 4.2c.2.7.4 1.3.8 1.9a4 4 0 003.5 1.8c.7 0 1.3-.1 1.8-.3l1.3-.8.8-1.3c.2-.6.3-1.1.3-1.8h-4v-2h6.4v8zm7.2.3a6 6 0 01-2.3-.4 5 5 0 01-2.8-3A7 7 0 0165 38c0-.8.2-1.6.4-2.3a5 5 0 012.8-3 6 6 0 012.3-.4 6 6 0 012.4.4 5 5 0 012.7 3 7 7 0 010 4.6 5 5 0 01-2.8 3 6 6 0 01-2.3.4zm0-1.9a2.8 2.8 0 002.4-1.2l.5-1.2a5.5 5.5 0 000-2.8c0-.5-.3-.9-.5-1.2a2.8 2.8 0 00-2.4-1.2 2.8 2.8 0 00-2.3 1.2c-.3.3-.5.7-.6 1.2a5.5 5.5 0 000 2.8c.1.4.3.9.6 1.2.2.4.5.7 1 1l1.3.2zm12.2 2a6 6 0 01-2.3-.5 5 5 0 01-2.8-3 7 7 0 01-.4-2.3c0-.8.2-1.6.4-2.3a5 5 0 012.8-3 6 6 0 012.3-.4 6 6 0 012.4.4 5 5 0 012.8 3c.2.7.3 1.5.3 2.3a7 7 0 01-.3 2.3 5 5 0 01-2.8 3 6 6 0 01-2.4.4zm0-2a2.8 2.8 0 002.4-1.2l.5-1.2a5.5 5.5 0 000-2.8c0-.5-.3-.9-.5-1.2a2.8 2.8 0 00-2.4-1.2 2.8 2.8 0 00-2.3 1.2c-.3.3-.5.7-.6 1.2a5.5 5.5 0 000 2.8c.1.4.3.9.6 1.2.2.4.5.7 1 1l1.3.2zm17.3 1c0 1.7-.5 3-1.4 3.7-.9.9-2.2 1.3-4 1.3l-1.6-.2a5 5 0 01-1.5-.6c-.5-.2-.8-.6-1.2-1-.3-.5-.4-1-.5-1.6h2.4c0 .3.2.6.4.8.1.2.3.4.6.5l.7.2h.9c1 0 1.7-.2 2.1-.6.5-.5.7-1.2.7-2.1v-1.7a3.6 3.6 0 01-3.3 2 5 5 0 01-2.2-.5c-.6-.3-1.1-.7-1.5-1.3-.4-.5-.7-1-1-1.8l-.2-2.2c0-.7.1-1.4.4-2 .2-.7.5-1.3 1-1.8a4.6 4.6 0 015.4-1.2c.6.3 1 .7 1.4 1.4v-1.5h2.4v10.3zm-5.3-1.3c.5 0 1 0 1.3-.3l1-.8.4-1.3a6.1 6.1 0 000-2.7c0-.4-.3-.8-.5-1.1-.2-.4-.5-.6-.9-.8-.4-.2-.8-.3-1.3-.3a2.5 2.5 0 00-2.3 1.2l-.4 1.2-.2 1.4c0 .4 0 .8.2 1.3 0 .4.3.8.5 1.1.2.4.5.6.9.8.3.2.8.3 1.3.3zm7.5-13h2.4v15h-2.4v-15zm12.2 8.5l-.2-1a2.7 2.7 0 00-1.4-1.5c-.4-.3-.7-.3-1.1-.3-.5 0-.8 0-1.2.2l-.9.6a3 3 0 00-.8 2h5.6zm-5.6 1.6c0 .4 0 .9.2 1.2l.5 1c.3.4.6.6 1 .8.3.2.7.2 1.2.2.7 0 1.3-.1 1.7-.4.5-.3.8-.8 1-1.4h2.3a4.5 4.5 0 01-3.3 3.5c-.5.2-1 .2-1.7.2-.8 0-1.6-.1-2.2-.4a4.7 4.7 0 01-2.7-3 7.3 7.3 0 010-4.5 5 5 0 017.2-3 5 5 0 011.7 1.4l1 2c.1.8.2 1.6.1 2.4h-8zm15.5-10.2h6.6c1 0 2 .2 2.6.5.7.3 1.2.7 1.6 1.1.3.5.6 1 .7 1.6l.2 1.5c0 .4 0 1-.2 1.5a4 4 0 01-.7 1.5 4 4 0 01-1.6 1.1c-.7.3-1.5.5-2.6.5h-4v5.7h-2.6v-15zm2.6 7.1h4.8l.8-.5c.3-.2.5-.4.6-.8.2-.3.3-.7.3-1.1 0-.5 0-1-.2-1.3a2 2 0 00-1.4-1.1l-1-.1h-3.9v5zm10.9-7h2.4v15h-2.4v-15zM151.6 41l.1.7.5.1H152.8v1.7a5.5 5.5 0 01-1.6.2c-.5 0-.9 0-1.2-.3-.3-.2-.5-.5-.6-1-.5.5-1 .8-1.8 1a7 7 0 01-2 .3c-.5 0-1 0-1.4-.2L143 43a2.8 2.8 0 01-1.1-2.3c0-.7.1-1.3.4-1.7.2-.4.5-.7 1-1l1.3-.5 1.5-.2 1.2-.2 1-.2c.4 0 .6-.2.8-.4.2-.1.2-.4.2-.8 0-.3 0-.5-.2-.7l-.5-.5-.8-.2h-.7a3 3 0 00-1.7.4c-.4.3-.7.7-.7 1.3h-2.4c0-.7.2-1.3.5-1.8.3-.4.7-.8 1.1-1 .5-.4 1-.5 1.6-.7a9.2 9.2 0 013.3 0c.5.2 1 .3 1.4.6.4.2.8.6 1 1 .3.4.4.9.4 1.4V41zm-2.4-3a3 3 0 01-1.4.4 17.9 17.9 0 00-2.3.4l-.6.3-.4.6c-.2.2-.2.4-.2.8 0 .2 0 .4.2.6l.6.5.7.2h1.6l.8-.4.7-.7c.2-.2.3-.5.3-1V38zm3.5-5.4h2.6l2.9 8 2.8-8h2.5L159.2 44a81.5 81.5 0 01-1.2 2.6 3 3 0 01-2.6 1.2c-.6 0-1.1 0-1.7-.2v-2l.6.1H155.6l.4-.4.3-.4.3-.7.2-.8-4-10.8z" fill="#646464" fill-rule="nonzero"/>
    <path d="M17.5 15l15 15 4.2-4.2-18.3-10.5a2 2 0 00-1-.3zm-1.3.7l-.2.8v29.1l.1.7 15.5-15.4-15.4-15.2zM38 26.6l-4.4 4.3 4.4 4.4 5.4-3c.8-.5 1-1 1-1.4 0-.5-.4-1-1-1.2-.4-.3-3.8-2.3-5.4-3.1zm-5.3 5.3L17.3 47c.3 0 .6 0 .8-.2l12.7-7.3 6-3.4-4.2-4.2z" fill="#6C6C6C" fill-rule="nonzero"/>
  </g>
</svg>
