<svg xmlns="http://www.w3.org/2000/svg" viewBox="0 0 146.8 120.4"><path fill="none" d="M0 0h146.8v120.4H0z"/><path fill="#231f20" d="M36.4 105.3v-6a3.6 3.6 0 00-3.8-3.8 3.7 3.7 0 00-3.4 1.7 3.5 3.5 0 00-3.1-1.7 3.2 3.2 0 00-2.8 1.4v-1.2h-2.1v9.6h2V100a2.2 2.2 0 012.4-2.5c1.4 0 2.1.9 2.1 2.5v5.3h2.1V100a2.3 2.3 0 012.4-2.5c1.4 0 2 .9 2 2.5v5.3zm31-9.6H64v-2.9h-2.1v2.9H60v1.9h2v4.4c0 2.2.8 3.5 3.3 3.5a4.9 4.9 0 002.6-.7l-.6-1.8a3.8 3.8 0 01-1.9.6c-1 0-1.4-.7-1.4-1.6v-4.4h3.4zm17.8-.2a2.8 2.8 0 00-2.6 1.4v-1.2h-2v9.6h2v-5.4c0-1.6.7-2.5 2-2.5a3.4 3.4 0 011.4.3l.6-2a4.5 4.5 0 00-1.5-.3zm-26.9 1a7.2 7.2 0 00-3.9-1c-2.4 0-4 1.1-4 3 0 1.6 1.2 2.5 3.3 2.8l1 .2c1.2.1 1.7.4 1.7 1 0 .7-.7 1.1-2.2 1.1a5 5 0 01-3.1-1l-1 1.7a6.9 6.9 0 004.1 1.2c2.8 0 4.4-1.3 4.4-3.1s-1.3-2.6-3.4-2.9l-1-.1c-.9-.1-1.6-.3-1.6-1s.7-1 1.8-1a6.2 6.2 0 013 .7zm55.8-1a2.8 2.8 0 00-2.6 1.4v-1.2h-2v9.6h2v-5.4c0-1.6.7-2.5 2-2.5a3.4 3.4 0 011.3.3l.7-2a4.5 4.5 0 00-1.5-.3zm-26.8 5a4.8 4.8 0 005 5 5 5 0 003.5-1.2l-1-1.7a4.2 4.2 0 01-2.5.9 3 3 0 010-6.1 4.2 4.2 0 012.5.8l1-1.6a5 5 0 00-3.5-1.2 4.8 4.8 0 00-5 5zm19.4 0v-4.8h-2v1.2a3.6 3.6 0 00-3-1.4 5 5 0 000 10 3.6 3.6 0 003-1.4v1.1h2zm-7.7 0a2.9 2.9 0 112.9 3 2.9 2.9 0 01-3-3zm-25.1-5a5 5 0 00.1 10 5.8 5.8 0 004-1.3l-1-1.6a4.5 4.5 0 01-2.8 1 2.6 2.6 0 01-2.8-2.3h7v-.8c0-3-1.8-5-4.5-5zm0 1.8a2.4 2.4 0 012.4 2.3h-5a2.5 2.5 0 012.6-2.3zm52.1 3.2v-8.6h-2v5a3.6 3.6 0 00-3-1.4 5 5 0 000 10 3.6 3.6 0 003-1.4v1.1h2zm3.5 3.4a1 1 0 01.3 0 1 1 0 01.4.2 1 1 0 01.2.3 1 1 0 010 .8 1 1 0 01-.2.3 1 1 0 01-.3.2 1 1 0 01-.4 0 1 1 0 01-1-.5 1 1 0 010-.8 1 1 0 01.3-.3 1 1 0 01.3-.2 1 1 0 01.4 0zm0 1.7a.7.7 0 00.3-.1.8.8 0 00.2-.2.7.7 0 000-1 .7.7 0 00-.2-.1.7.7 0 00-.3 0 .8.8 0 00-.3 0 .7.7 0 00-.3.1.7.7 0 000 1 .7.7 0 00.3.2.7.7 0 00.3 0zm0-1.2a.4.4 0 01.3 0 .3.3 0 010 .3.2.2 0 010 .1.3.3 0 01-.2.1l.3.4h-.2l-.3-.4h-.1v.4h-.2v-1zm-.2.1v.3h.2a.2.2 0 00.2 0 .1.1 0 000-.1.1.1 0 000-.1.2.2 0 00-.2 0zm-11-4a2.9 2.9 0 113 3 2.9 2.9 0 01-3-3zm-70.2 0v-4.8H46v1.2a3.6 3.6 0 00-3-1.4 5 5 0 000 10 3.6 3.6 0 003-1.4v1.1h2zm-7.8 0a2.9 2.9 0 113 3 2.9 2.9 0 01-3-3z"/><path fill="#ff5f00" d="M57.6 22.9h31.5v56.6H57.6z"/><path fill="#eb001b" d="M59.6 51.2a36 36 0 0113.8-28.4 36 36 0 100 56.7 36 36 0 01-13.8-28.3z"/><path fill="#f79e1b" d="M131.7 51.2a36 36 0 01-58.3 28.3 36 36 0 000-56.7 36 36 0 0158.3 28.3zm-3.5 22.3v-1.2h.5v-.2h-1.2v.2h.5v1.2zm2.3 0V72h-.3l-.5 1-.4-1h-.3v1.4h.3v-1l.3.8h.3l.4-.9v1z"/></svg>
