<svg xmlns="http://www.w3.org/2000/svg" viewBox="0 0 271.57 39.01"><path d="M31.41,35.83c0,.05-.06.05-.06.05v.47a.17.17,0,0,0-.05.15.18.18,0,0,1-.05.15v.15a.19.19,0,0,0-.05.11l-.1.15a.22.22,0,0,1-.05.16c0,.05-.05.1-.05.15l-.11.15a.18.18,0,0,0-.05.11c-.05,0-.1,0-.1.1s0,.1-.1.1-.06.1-.1.15-.06.05-.11.11-.05,0-.1.1a.11.11,0,0,0-.1.1h-.05a0,0,0,0,1-.05.05,3.08,3.08,0,0,1-.42.26c-.15,0-.25.15-.41.2h0a1.68,1.68,0,0,1-.47.11h-.1a1,1,0,0,1-.41.05h-.36l-.05-.05h-.25c-.06-.06-.06-.06-.11-.06s-.15-.05-.25-.05a.18.18,0,0,0-.11,0s-.1,0-.15-.1a.18.18,0,0,1-.15,0c-.06,0-.11-.05-.16-.1s-.1,0-.1-.06a1,1,0,0,1-.21-.1c0-.05-.05-.05-.1-.1a.68.68,0,0,1-.2-.21A.05.05,0,0,1,26,38c-.1,0-.15-.15-.2-.2v-.05L6.25,12.32V35.83A3.15,3.15,0,0,1,3.12,39,3.11,3.11,0,0,1,0,35.83V2.94c.05,0,.05,0,.05-.1V2.68A.18.18,0,0,1,.1,2.53V2.38a.22.22,0,0,0,0-.16.17.17,0,0,1,.05-.1C.2,2.07.26,2,.26,2l.1-.15a.18.18,0,0,1,0-.15s.05-.1.1-.15A.17.17,0,0,1,.56,1.4l.11-.1a.17.17,0,0,1,0-.1L.87,1,1,.94l.1-.1.11-.1h.05A.05.05,0,0,1,1.28.68c.05-.05.1-.1.15-.1s.11,0,.11-.1.1,0,.15,0a.18.18,0,0,1,.15,0L2,.28s0,0,.1-.06a.18.18,0,0,0,.15,0h.16A.18.18,0,0,1,2.56.12h.15a.2.2,0,0,1,.16,0h.61a.2.2,0,0,0,.16,0h.15a.15.15,0,0,0,.1.05l.21,0s.05.06.1.06.1,0,.15,0,.11,0,.16,0l.1.1s.1.05.15.05.11,0,.11.1S5,.68,5,.74s.05.05.1.05l.11.1.1.1.1.1c.05.06.1.11.1.16s0,0,0,.05L25.15,26.71V3.2A3.11,3.11,0,0,1,28.28.07,3.14,3.14,0,0,1,31.41,3.2Z"/><path d="M72.21,38.91H46a3.13,3.13,0,0,1-2.82-1.75,3,3,0,0,1,.46-3.22L66.27,6.63H46.44a3.08,3.08,0,0,1,0-6.15H72.72a3,3,0,0,1,2.82,1.79,3,3,0,0,1-.41,3.23L52.49,32.81H72.21a3.05,3.05,0,1,1,0,6.1Z"/><path d="M115,3.2A3.09,3.09,0,0,1,112,6.32h-8.81V35.88a3.1,3.1,0,1,1-6.2,0V6.32H88.18a3.1,3.1,0,0,1,0-6.2H112A3.09,3.09,0,0,1,115,3.2Z"/><path d="M223.76,38.85a3.09,3.09,0,0,1-3.07-3.12V3.12a3.1,3.1,0,1,1,6.19,0V35.73A3.1,3.1,0,0,1,223.76,38.85Z"/><path d="M271.57,35.83a.05.05,0,0,1-.05.06v.46a.18.18,0,0,0,0,.15.18.18,0,0,1-.05.15v.16a.15.15,0,0,0-.05.1l-.1.15a.22.22,0,0,1,0,.16c0,.05-.05.1-.05.15l-.11.15a.22.22,0,0,0-.05.11c-.05,0-.1,0-.1.1s-.05.1-.1.1-.06.1-.11.16-.05,0-.1.1-.05,0-.1.1a.11.11,0,0,0-.1.1h-.06a0,0,0,0,1,0,.05,2.78,2.78,0,0,1-.4.26c-.16,0-.26.15-.41.2h-.06a1.47,1.47,0,0,1-.46.11h-.1a1,1,0,0,1-.41.05h-.36l0-.05h-.25c-.06-.06-.06-.06-.11-.06s-.15-.05-.25-.05a.18.18,0,0,0-.11,0c-.05,0-.1,0-.15-.1a.18.18,0,0,1-.15,0s-.1-.05-.16-.1-.1,0-.1-.06-.15,0-.2-.1-.05-.05-.11-.1a.68.68,0,0,1-.2-.21c-.05,0-.05,0-.05,0a1,1,0,0,1-.21-.21v-.05L246.44,12.34V35.83a3.13,3.13,0,1,1-6.25,0V3c.05,0,.05-.05.05-.1V2.71a.18.18,0,0,1,0-.15V2.4a.17.17,0,0,0,.06-.15.17.17,0,0,1,.05-.1s0-.1,0-.16l.1-.15a.18.18,0,0,1,0-.15c0-.05.05-.1.11-.16a.15.15,0,0,1,0-.1l.1-.1a.17.17,0,0,1,0-.1l.15-.16.1-.1.11-.1.1-.1h0a.05.05,0,0,1,.05-.06c.05,0,.1-.1.16-.1s.1,0,.1-.1.1,0,.15,0A.19.19,0,0,1,242,.41l.15-.1c.05,0,.05,0,.1,0a.17.17,0,0,0,.15-.06h.16a.18.18,0,0,1,.15-.05h.16a.18.18,0,0,1,.15,0h.61a.19.19,0,0,0,.16,0H244a.15.15,0,0,0,.1.05l.21.06a.17.17,0,0,0,.1,0c.05,0,.1,0,.15,0s.11,0,.16,0l.1.1s.1.05.15.05.1,0,.1.1.11,0,.16.11,0,0,.1,0l.1.1.11.1.1.1c0,.06.1.11.1.16s.05,0,.05.05l19.56,25.39V3.22A3.1,3.1,0,0,1,268.45.1a3.13,3.13,0,0,1,3.12,3.12Z"/><path d="M187.92.11a19.27,19.27,0,0,0-9.37,2.42c-6.31,3.22-11.33,9.25-16.23,15.13-5.18,6.22-10.13,12.16-16.11,14.28l-.09,0c-.34.12-.68.23-1,.33l-.19,0c-.24.07-.49.12-.75.17l-.35.07c-.29.05-.59.09-.89.12l-.34,0c-.32,0-.65,0-1,0a13.24,13.24,0,1,1,8.26-23.55l.12.07a3,3,0,0,0,1.8.58,3.1,3.1,0,0,0,1.68-5.7A19.43,19.43,0,1,0,141.58,39a19.28,19.28,0,0,0,8-1.75c6.86-3,12.21-9.37,17.42-15.63C173.3,14.07,179.24,7,187.12,6.34c.27,0,.53,0,.8,0a13.24,13.24,0,1,1-8.26,23.56.36.36,0,0,0-.12-.08,3.06,3.06,0,0,0-1.79-.58,3.1,3.1,0,0,0-1.68,5.7A19.24,19.24,0,0,0,187.92,39a19.43,19.43,0,1,0,0-38.86Z"/></svg>
