<svg xmlns="http://www.w3.org/2000/svg" viewBox="0 0 126 26"><path fill-rule="evenodd" d="M4.7 17v8.3c0 .5-.3.8-.8.8H.7c-.5-.1-.7-.4-.7-.9V.8C0 .2.2 0 .8 0H10c4.4.1 7.7 3.3 7.9 7.7.1 2.3-.3 4.5-1.9 6.3a7.7 7.7 0 01-6 2.9H5l-.3.1zm.1-3.9h4.3c1.2 0 2.2-.5 2.9-1.4a5 5 0 001-4.8c-.5-2-2-3.1-4.1-3.1H4.8v9.3zm29.2 12c.2.6.6.9 1.3.9H38c.9 0 1.2-.4.8-1.2L27.8.7c-.2-.5-.5-.6-1-.6s-.7.3-.8.6L20.3 13l-.2.5-.3.7-4.9 10.6c-.3.7-.1 1.2.8 1.2h2.7c.8 0 1.1-.2 1.4-.9l.3-.6.1-.3 1.1-2.7c.1-.3.3-.5.7-.5h9.9c.3 0 .5.1.6.4l1.1 2.6v.2l.4.9zm-10.8-8h7.3l-3.7-8-3.6 8zM52.6.6l-5.7 8.3-1.6-2.4L41.2.6c-.1-.2-.4-.5-.7-.5h-3.8c-.5 0-.8.5-.6 1L40.7 8l3.5 5.2c.2.2.2.5.2.8v11.1c0 .7.2.9.9.9h2.8c.8 0 1-.2 1-1V14.1c0-.4.1-.8.3-1.1l8-11.6c.2-.3.4-.6.2-.9-.2-.4-.5-.4-.9-.4H53.5c-.4-.1-.7.1-.9.5zM126 21.8c0 2.3-1.9 4.2-4.2 4.1s-4.2-1.9-4.2-4.2a4.2 4.2 0 017.2-3c.8.9 1.2 2 1.2 3.1zm-.5.1a3.8 3.8 0 01-6.4 2.5 3.3 3.3 0 01-1-2.6c0-2 1.7-3.6 3.8-3.6 2 0 3.6 1.7 3.6 3.7zm-3 .3l.4.6.7 1c-.4.2-.7 0-.8-.3l-.2-.3-.2-.3c-.3-.6-.8-.7-1.5-.6v1.5h-.5v-3.6h2c.5 0 .8.4.9.8.1.5-.2.8-.7 1l-.1.2zm-1.2-.4h-.4v-1.1h1.3c.3 0 .6.2.6.6 0 .3-.2.5-.5.5h-1z" clip-rule="evenodd"/><path fill="#1eabf1" fill-rule="evenodd" d="M111 15.6l.4.7 4.5 8.4.2.5c.1.4-.1.8-.6.8h-3.9c-.4 0-.5-.3-.6-.6l-4.4-9c-.2-.4-.4-.5-.8-.5h-3c-.4 0-.5.1-.5.5v8.5c0 .9-.1 1-1 1h-2.7c-.7 0-.9-.2-.9-.9V.9c0-.6.2-.9.9-.9h10.2c3.8 0 6.9 2.5 7.6 6.1.7 3.9-.9 7.4-4.7 9.2l-.7.3zm-8.7-3.5h5.8a3 3 0 001.9-.6c1.4-1 2-3 1.6-4.8a3.7 3.7 0 00-3.8-2.9h-5.5v8.3zM65.1 3.8v7.3h8.7c.7 0 1 .2 1 .9v2c0 .6-.2.9-.9.9h-8.8v7.3h10.4c.8 0 1 .2 1 1v1.9c0 .7-.2.9-.9.9H61.2c-.5 0-.7-.2-.8-.6V1.1c0-.9.2-1.1 1.1-1.1h14c.9 0 1 .2 1 1.1v1.8c0 .7-.2.9-.9.9H65.1zm14 9.2V.9c0-.8.2-.9.9-.9h14.2c.7 0 .9.2.9.9V3c0 .7-.2.8-.9.8h-9.8c-.7 0-.7 0-.7.7v6.1c0 .4.1.5.5.5h8.1c1 0 1.1.1 1.1 1.1v1.9c0 .6-.2.8-.8.8h-8.4c-.3 0-.5.1-.5.5v6.4c0 .4.1.5.5.5h10c.9 0 1 .1 1 1v1.9c0 .7-.2.9-.8.9H80.1c-.8 0-1-.1-1-1V13z" clip-rule="evenodd"/></svg>
