<svg xmlns="http://www.w3.org/2000/svg" width="1280" height="512"><path fill="#005ca9" d="M560 447H460L521.4 66H621L560 447zM376.5 65.9l-94.8 262-10.2-57.1-35.7-171.3S232.8 66 190 66H34l-2 6c39.4 10.2 74 25.2 105.5 44.8l-1.6-.9 85.7 330.3h104l158-381.2zM1156.3 446h91.7l-79.5-379.2H1089l-3.3-.1a45.9 45.9 0 00-42.4 28.3l-.2.3-147.8 350.7h103l20.4-56H1145zm-109-134.6l53-142.7 28.5 142.7zM902.4 157.6l14.2-81.5a279 279 0 00-89.2-17.4h-.5C778.1 58.7 661 80.1 661 185.1c0 97.9 137.6 100 137.6 150.9s-122.3 42.8-163 10.2L620 431.8a272.6 272.6 0 00112.4 21.4h-.3c67.3 0 170.3-34.6 170.3-130.5 0-98.8-138.7-108-138.7-151.8s96.9-36.7 138.7-13.3z"/><path fill="#f7a823" d="M270.5 271.8L236.9 99.5s-4.1-33.6-47-33.6H34l-2 6a385.8 385.8 0 01147.4 75l-.6-.5a299 299 0 0191 123.4l.7 2z"/></svg>
