<svg xmlns="http://www.w3.org/2000/svg" width="31.938" height="32"><path d="M24.158 4.866a2.965 2.965 0 1 0 2.1.869 2.943 2.943 0 0 0-2.1-.869zm.7 3.664a.988.988 0 1 1 0-1.4.982.982 0 0 1-.001 1.4zm6.279-7.111l-.158-.41-.41-.158A12.7 12.7 0 0 0 25.988 0a12.373 12.373 0 0 0-8.815 3.638L14.214 6.6l-7.451.93-5.49 5.493 4.657 1.864-1.037 1.037 1.5 1.5-2.325 3.267 7.238 7.242 3.26-2.33 1.5 1.5 1.036-1.037 1.863 4.66 5.49-5.493.931-7.455 2.959-2.961a12.577 12.577 0 0 0 2.792-13.398zM4.788 12.3L7.68 9.408l4.257-.533-4.488 4.491zm6.732 13.05l-4.871-4.873 1.164-1.631 5.336 5.339zm11.063-1.032l-2.892 2.894-1.064-2.663 4.489-4.491zm4.37-10.9L16.07 24.311l-3.493-3.494 7.684-7.688-1.4-1.4-7.684 7.688-3.49-3.493L18.57 5.035a10.411 10.411 0 0 1 7.418-3.059 10.728 10.728 0 0 1 3.453.569 10.588 10.588 0 0 1-2.488 10.878zM2.797 27.806l2.794-2.8 1.4 1.4L4.194 29.2zM6.988 32l-1.4-1.4 2.794-2.8 1.4 1.4zM.003 25.01l2.794-2.8 1.4 1.4-2.794 2.8z" fill-rule="evenodd" fill="#fff"/></svg>