<svg xmlns="http://www.w3.org/2000/svg" width="28" height="31"><defs><filter id="a" x="0" y="0" width="28" height="31" filterUnits="userSpaceOnUse"><feFlood result="flood" flood-color="#fff"/><feComposite result="composite" operator="in" in2="SourceGraphic"/><feBlend result="blend" in2="SourceGraphic"/></filter></defs><path d="M0 17.038A14 14 0 1 0 23.923 7.2l1.1-1.1.51.508a1.1 1.1 0 0 0 1.556 0 1.1 1.1 0 0 0 0-1.551L24.54 2.514a1.1 1.1 0 0 0-1.555 1.551l.51.508-1.207 1.2a13.877 13.877 0 0 0-7.161-2.648v-.932h2.441a1.086 1.086 0 0 0 1.1-1.1 1.086 1.086 0 0 0-1.1-1.1h-7.242a1.086 1.086 0 0 0-1.1 1.1 1.086 1.086 0 0 0 1.1 1.1h2.6v.936A13.985 13.985 0 0 0 0 17.038zM14 5.269a11.8 11.8 0 1 1-11.828 11.8A11.831 11.831 0 0 1 14 5.269zm0 12.678h4.694a1.1 1.1 0 1 0 0-2.193H15.1V10.11a1.1 1.1 0 0 0-2.2 0v6.767a1.081 1.081 0 0 0 1.1 1.07z" fill-rule="evenodd" filter="url(#a)"/></svg>