<svg xmlns="http://www.w3.org/2000/svg" width="31.938" height="32" viewBox="0 0 31.938 32">
  <defs>
    <style>
      .cls-1 {
      fill-rule: evenodd;
      }
    </style>
  </defs>
  <path class="cls-1"
        d="M24.221,4.866a2.965,2.965,0,1,0,2.1.869A2.943,2.943,0,0,0,24.221,4.866Zm0.7,3.664a0.988,0.988,0,1,1,0-1.4A0.982,0.982,0,0,1,24.92,8.53ZM31.2,1.419l-0.158-.41-0.41-.158A12.7,12.7,0,0,0,26.051,0a12.373,12.373,0,0,0-8.815,3.638L14.277,6.6,6.826,7.53l-5.49,5.493,4.657,1.864L4.956,15.924l1.5,1.5L4.131,20.691l7.238,7.242,3.26-2.33,1.5,1.5,1.036-1.037,1.863,4.66,5.49-5.493,0.931-7.455,2.959-2.961A12.577,12.577,0,0,0,31.2,1.419ZM4.851,12.3L7.743,9.408,12,8.875,7.512,13.366ZM11.583,25.35L6.712,20.477l1.164-1.631,5.336,5.339Zm11.063-1.032-2.892,2.894-1.064-2.663,4.489-4.491Zm4.37-10.9L16.133,24.311,12.64,20.817l7.684-7.688-1.4-1.4-7.684,7.688L7.75,15.924,18.633,5.035a10.411,10.411,0,0,1,7.418-3.059,10.728,10.728,0,0,1,3.453.569A10.588,10.588,0,0,1,27.016,13.423ZM2.86,27.806l2.794-2.8,1.4,1.4L4.257,29.2ZM7.051,32l-1.4-1.4,2.794-2.8,1.4,1.4ZM0.066,25.01l2.794-2.8,1.4,1.4-2.794,2.8Z"
        transform="translate(-0.063)"/>
</svg>
